# xmcd
#
# Track frame offsets:
# 183
# 16590
# 35873
# 50875
# 66263
# 78108
# 91095
# 106068
# 117640
# 130280
#
# Disc length: 1903 seconds
#
#
# Revision: 13
# Processed by: cddbd v1.5.2PL0 Copyright (c) Steve Scherf et al.
# Submitted via: FreeRIP 2.945 
#
DISCID=80076d0a
DTITLE=Tina Turner - Sings Country
DYEAR=1992
DGENRE=Country
TTITLE0=Lay It Down
TTITLE1=Lovin' Him Was Easier
TTITLE2=Good Hearted Woman
TTITLE3=If This Was Our Last Time
TTITLE4=Stand By Your Man
TTITLE5=Freedom To Stay
TTITLE6=We Had It All
TTITLE7=Soul Deep
TTITLE8=If It's Alright With You
TTITLE9=You Ain't Woman Enough To Take My Man
EXTD=
EXTT0=
EXTT1=
EXTT2=
EXTT3=
EXTT4=
EXTT5=
EXTT6=
EXTT7=
EXTT8=
EXTT9=
PLAYORDER=
